<?xml version="1.0" encoding="utf-8"?>
<!-- Generator: Adobe Illustrator 27.5.0, SVG Export Plug-In . SVG Version: 6.00 Build 0)  -->
<svg version="1.1" id="Layer_1" xmlns="http://www.w3.org/2000/svg" xmlns:xlink="http://www.w3.org/1999/xlink" x="0px" y="0px"
	 viewBox="0 0 210.44 161.25" style="enable-background:new 0 0 210.44 161.25;" xml:space="preserve">
<style type="text/css">
	.st0{fill:#FFFFFF;}
	.st1{fill:none;stroke:#000000;stroke-width:0.75;}
</style>
<path class="st0" d="M188.41,161.25H22.03C9.86,161.25,0,151.38,0,139.22V22.03C0,9.86,9.86,0,22.03,0h166.38
	c12.17,0,22.03,9.86,22.03,22.03v117.18C210.44,151.38,200.58,161.25,188.41,161.25z"/>
<polygon points="18.35,122.28 30.63,122.28 35.97,86.24 24.06,86.24 "/>
<path class="st1" d="M54.11,45.79c-1.77-6.25-6.61-8.97-12.27-8.97c-6.37,0-11.33,3.66-12.39,10.5l-5.39,34.05h11.91l4.45-30.04
	c0.24-1.89,1.06-2.71,2.12-2.71s1.65,0.71,2.12,2.36l8.62,30.39h10.65L54.11,45.79z"/>
<polygon class="st1" points="104.34,86.24 109.11,122.17 121.26,122.17 116.08,86.24 "/>
<path class="st1" d="M71.58,105.76c-0.35,1.06-0.47,1.42-1.18,1.42c-0.59,0-0.83-0.35-1.06-1.42l-5.39-19.53H53.29l7.55,26.61
	c1.3,4.48,5.31,6.84,9.56,6.84c4.48,0,8.26-2.36,9.56-7.08l7.58-26.37H76.95L71.58,105.76z"/>
<path d="M111.23,47.68c-1.06-6.96-5.9-10.74-12.15-10.74c-5.67,0-10.74,2.83-12.39,9.09l-9.73,35.35h10.59l8.7-30.28
	c0.35-1.53,1.06-2.36,2.12-2.36c1.3,0,1.77,1.06,2.01,2.72l3.97,29.92h11.74L111.23,47.68z"/>
<path class="st1" d="M190.52,76.12h-39.77V49.33h42.48V38.24h-43.43c-8.14,0-11.09,4.13-11.09,10.86v32.28h51.81V76.12z"/>
<polygon points="138.72,86.24 138.72,122.17 150.75,122.17 150.75,92.07 190.52,92.07 190.52,86.24 "/>
</svg>
